<?xml version="1.0" standalone="no"?><!DOCTYPE svg PUBLIC "-//W3C//DTD SVG 1.1//EN" "http://www.w3.org/Graphics/SVG/1.1/DTD/svg11.dtd"><svg t="1616553760662" class="icon" viewBox="0 0 1024 1024" version="1.1" xmlns="http://www.w3.org/2000/svg" p-id="1820" xmlns:xlink="http://www.w3.org/1999/xlink" width="64" height="64"><defs><style type="text/css"></style></defs><path d="M363.39964746 298.84760437l321.18111119 0c21.66052353 0 42.51527737-9.16787277 56.41836964-25.79130089 33.1456176-39.39205667 64.57891544-87.7506597 71.63112535-131.07170674 14.20519903-86.74310303-22.97041669-130.76960112-130.76960112-130.76960113s-71.32879001 70.72434789-113.23962409 76.56767242c-31.23151201 4.33210493-30.12340583-36.87327925-79.18699935-76.46689435-35.26151017-28.3098486-74.75411634 51.68315014-121.29939183 52.18681419-54.30247705 0.70522133-130.6688219-14.30597712-130.66882192 78.48177799 0 37.47795108 32.84351081 88.15354454 68.7094631 130.16492928C320.58226447 288.97428054 341.33600938 298.84760437 363.39964746 298.84760437zM764.07009447 381.45993002c-17.12686131-19.44408145-42.01138357-30.3249631-67.90346369-30.32496312L353.42577527 351.1349669c-24.78374422 0-48.66070865 9.97387333-65.78779968 27.90696376C179.93933953 491.87867108 80.60303742 652.97300443 80.60303742 770.44395541c0 103.56785869 104.07152161 234.33745866 232.42312336 234.33745867l397.95034088 0c128.35160176 0 232.42312338-129.66126521 232.42312338-234.33745867C943.39985476 650.85734158 863.50740552 494.29666928 764.07009447 381.45993002zM659.39413075 524.01696054l-68.91079066 125.02705352c-6.04488296 10.98143001 1.91410558 24.48140772 14.40675632 24.48140771l19.54486067 0c9.06732443 0 16.52241919 7.35454641 16.52241919 16.5224192l0 0c0 9.06732443-7.35454641 16.52241919-16.52241919 16.52241918l-49.16460243 0c-9.57098733 0-17.22764053 7.65688176-17.32841859 17.22764053l0 8.16054581c0 9.06732443 7.35454641 16.52241919 16.52241917 16.52241919l49.97037211 0c9.06732443 0 16.52241919 7.35454641 16.5224192 16.52241918s-7.35454641 16.52241919-16.5224192 16.52241918l-49.97037211 0c-9.06732443 0-16.52241919 7.35454641-16.52241917 16.52241919l0 42.01138358c0 9.06732443-7.35454641 16.52241919-16.52241919 16.52241919l-29.92184856 0c-9.06732443 0-16.52241919-7.35454641-16.52241918-16.52241919l0-42.01138358c0-9.06732443-7.35454641-16.52241919-16.52241918-16.52241919l-49.46670922 0c-9.06732443 0-16.52241919-7.35454641-16.52241918-16.52241918s7.35454641-16.52241919 16.52241918-16.52241918l49.36593001 0c9.1681025 0 16.52264891-7.35454641 16.62319839-16.52241919l0.10077922-8.05976659c0.10077921-9.57098733-7.65688176-17.4291978-17.32841859-17.42919782l-48.76148787 0c-9.06732443 0-16.52241919-7.35454641-16.52241919-16.52241916l0 0c0-9.06732443 7.35454641-16.52241919 16.52241919-16.5224192l19.0411966 0c12.59342882 0 20.45163927-13.49997771 14.40675633-24.48140772l-68.91102038-125.02682495c-6.04488296-10.98143001 1.91410558-24.48163744 14.40675633-24.48163744l32.84351081 0c6.24621052 0 11.98898668 3.52610554 14.70909167 9.06732443l56.11603428 111.92973208c6.04488296 12.08953619 23.37330155 12.08953619 29.51896256 0l56.11603428-111.92973208c2.82088421-5.54098917 8.46265259-9.06732443 14.70909167-9.06732443l32.84351081 0C657.47979546 499.63610232 665.43901255 513.03553054 659.39413075 524.01696054z" p-id="1821" fill="#FFFFFF"></path></svg>