<?xml version="1.0" standalone="no"?><!DOCTYPE svg PUBLIC "-//W3C//DTD SVG 1.1//EN" "http://www.w3.org/Graphics/SVG/1.1/DTD/svg11.dtd"><svg t="1616553831533" class="icon" viewBox="0 0 1024 1024" version="1.1" xmlns="http://www.w3.org/2000/svg" p-id="2768" xmlns:xlink="http://www.w3.org/1999/xlink" width="64" height="64"><defs><style type="text/css"></style></defs><path d="M512 2.27555555C230.51377778 2.27555555 2.27555555 230.51377778 2.27555555 512s228.23822222 509.72444445 509.72444445 509.72444445 509.72444445-228.23822222 509.72444445-509.72444445S793.48622222 2.27555555 512 2.27555555zM267.83288889 391.05422222c0-39.13955555 31.744-70.88355555 70.88355556-70.88355555s70.88355555 31.744 70.88355555 70.88355555v0.11377778c0 39.13955555-31.744 70.88355555-70.88355555 70.88355555-39.25333333-0.11377778-70.88355555-31.85777778-70.88355556-70.99733333zM512 815.55911111c-119.92177778 0-217.088-97.16622222-217.088-217.088h434.176c0 119.92177778-97.16622222 217.088-217.088 217.088zM685.28355555 461.93777778c-39.13955555 0-70.88355555-31.744-70.88355555-70.88355556s31.744-70.88355555 70.88355555-70.88355555 70.88355555 31.744 70.88355556 70.88355555-31.744 70.88355555-70.88355556 70.88355556z" fill="#FFFFFF" p-id="2769"></path></svg>