<?xml version="1.0" standalone="no"?><!DOCTYPE svg PUBLIC "-//W3C//DTD SVG 1.1//EN" "http://www.w3.org/Graphics/SVG/1.1/DTD/svg11.dtd"><svg t="1616553791247" class="icon" viewBox="0 0 1024 1024" version="1.1" xmlns="http://www.w3.org/2000/svg" p-id="2112" xmlns:xlink="http://www.w3.org/1999/xlink" width="64" height="64"><defs><style type="text/css"></style></defs><path d="M7.04407097 971.05010347l183.61980814 0L190.66388025 420.18951395 7.04407097 420.18951395 7.04407097 971.05010347zM1016.95592903 466.09417443c0-50.72484238-41.08447971-91.81048605-91.81048604-91.81048604L635.25460309 374.28368839 679.09380437 164.49867662c0.91862926-4.59081501 1.60672768-9.41099691 1.60672768-14.46054457 0-19.05019563-7.80426923-36.26546176-20.19819064-48.65938318l-48.88874895-48.43001742L309.32883115 355.23349277c-16.52600377 16.75537067-26.85446485 39.70828288-26.85446486 64.95602118l0 459.05010347c0 50.72484238 41.08447971 91.81048605 91.81048605 91.81048605l413.14544185 0c38.1015552 0 70.69366727-23.18227911 84.46494834-56.00375581l138.40324608-323.63094585c4.1309184-10.55782798 6.65627534-21.80491719 6.65627534-33.51074019L1016.95476395 469.99689216l-0.45873266-0.45873266L1016.95592903 466.09417443z" p-id="2113" fill="#FFFFFF"></path></svg>